<svg xmlns="http://www.w3.org/2000/svg" width="1440" height="267" fill="none" viewBox="0 0 1440 267">
    <mask id="4mqvobloca" width="1440" height="267" x="0" y="0" maskUnits="userSpaceOnUse">
        <path fill="#C4C4C4" d="M0 0H1440V267H0z"/>
    </mask>
    <g fill-rule="evenodd" clip-rule="evenodd" mask="url(#4mqvobloca)" opacity=".3">
        <path fill="#67DAD3" d="M220.73 274.01H56.058v-45.2c0-40.854 36.862-73.968 82.336-73.968s82.336 33.114 82.336 73.968v45.2z"/>
        <path fill="#00C1B5" d="M21.022 138.884c.017-57.909 29.427-108.268 84.087-134.755V274.01C50.54 247.369 20.92 196.715 21.022 138.884z"/>
        <path fill="#9AE7E1" d="M108.613 274.01H-56.059v-45.2c0-40.854 36.862-73.968 82.336-73.968s82.336 33.114 82.336 73.968v45.2z"/>
        <path fill="#67DAD3" d="M1552.12 274.01h-126.13v-38.555c0-34.842 28.23-63.089 63.06-63.089s63.07 28.247 63.07 63.089v38.555z"/>
        <path fill="#00C1B5" d="M1475.04 160.253c-.01 48.887-22.07 91.399-63.07 113.757V46.188c40.93 22.488 63.14 65.248 63.07 114.065zM1387.45 160.253c-.02 48.887-22.07 91.399-63.07 113.757V46.188c40.93 22.488 63.14 65.248 63.07 114.065z"/>
        <path fill="#9AE7E1" d="M1464.53 274.01h-157.67v-47.861c0-43.254 35.29-78.317 78.83-78.317s78.84 35.063 78.84 78.317v47.861z"/>
    </g>
</svg>
